inDegrees=no
nColumns=24
nRows=16
DataType=double
version=3
OpenSimVersion=4.5
endheader
time	pelvis_tilt	pelvis_list	pelvis_rotation	pelvis_tz	pelvis_ty	pelvis_tx	hip_flexion_r	hip_adduction_r	hip_rotation_r	knee_angle_r	ankle_angle_r	subtalar_angle_r	mtp_angle_r	hip_flexion_l	hip_adduction_l	hip_rotation_l	knee_angle_l	ankle_angle_l	subtalar_angle_l	mtp_angle_l	lumbar_extension	lumbar_bending	lumbar_rotation
0.3399999999999999	0.01916493214526986	0.06182464669079713	-0.06850905306749405	-0.01607013000000002	0.8847464900000001	0.40832295	0.4778871585776772	-0.05293092538007168	0.006649174742670415	-0.6636352192628449	0.05238242459577177	0.0001609828870186498	0	-0.06226555691044262	0.146250762642765	-0.1032358569909924	-0.1449794946607425	0.197473891029209	0.07370331682171791	0	-0.09570678794496432	-0.0923807098006485	-0.04512960905627612
0.3499999999999999	0.02018465215099413	0.0676191269503174	-0.06463203755219168	-0.01638597999999999	0.88292867	0.41916248	0.4886923404821951	-0.05670422634285265	0.00400479427891557	-0.6130803395733447	0.05494399302624384	0.004344218406927644	0	-0.08099387458268914	0.1529099197960922	-0.09745158661686602	-0.1387653889617581	0.2093599019324117	0.07807016412052935	0	-0.09884774302977833	-0.09896110600441974	-0.05352105540862431
0.3599999999999999	0.02610482134370408	0.07121691740315922	-0.05963254440689103	-0.01676743	0.88147783	0.43043937	0.490232850459546	-0.06031442803236401	-0.006740055607618087	-0.5583196253171822	0.05082441402747821	0.0136807422232736	0	-0.1071588422773463	0.157234661724831	-0.0924555936758041	-0.1295701212740272	0.2203183478307983	0.08432076151258032	0	-0.1067526601781101	-0.1033613072433685	-0.06310709899975114
0.3699999999999999	0.02465988120752268	0.08116384691453363	-0.05693701912783557	-0.01686435	0.87891904	0.44149924	0.5018233451808608	-0.06701960079142004	-0.008875048813741923	-0.5080450186274819	0.05326341793295945	0.01755421967459837	0	-0.1208240559571991	0.1674380858682535	-0.09532585028802892	-0.1280996077263276	0.2275868924520459	0.08484990572281097	0	-0.1060721830062951	-0.1149930945349233	-0.06588539543541888
0.3799999999999999	0.02972959551448956	0.08474715866623031	-0.0544120362052563	-0.01677967	0.8770827800000001	0.45291121	0.500404528634671	-0.06731526759522244	-0.0124591463117629	-0.4511101363774697	0.04278937123877014	0.04372045465282543	0	-0.1500816732589629	0.1717853083358897	-0.08574476604997162	-0.1114845146411094	0.2389500587364202	0.09419903430701485	0	-0.1133057301108487	-0.120199543291448	-0.07512146211427731
0.3899999999999999	0.02991850282019059	0.09419321501445699	-0.05347038446483888	-0.01660739999999999	0.87430889	0.46413897	0.5059332693672702	-0.07189238657726055	-0.009148572101725493	-0.3996840263735517	0.04272892804331262	0.05677370458424897	0	-0.1666701069634556	0.1816433138434513	-0.08401337447378493	-0.108863090493006	0.2483259172126512	0.09762230739391325	0	-0.1145878837114158	-0.1317495250810997	-0.07843457089145446
0.3999999999999999	0.0335419067669494	0.09659053948350475	-0.05216147596362374	-0.01612574999999999	0.87208129	0.47578992	0.5039356251956979	-0.07101845449316059	-0.01550075027423642	-0.3471164406701006	0.03025274644538563	0.07957729903925899	0	-0.1894990945628187	0.1835704060470714	-0.08780966142281467	-0.1024228316617993	0.2580917417595053	0.106646702460952	0	-0.1194136295577895	-0.1361639552913083	-0.08237470927369699
0.4099999999999999	0.03245458110496349	0.1037799968383586	-0.05080673872904947	-0.01562377000000001	0.86907249	0.48726791	0.5083104807632493	-0.07362922323164761	-0.01391920411551264	-0.3015149820250806	0.028297011643411	0.09238469386373202	0	-0.2040393522760379	0.1903860701905505	-0.08604495517639885	-0.1021918057448384	0.2681447944432284	0.1121033895443106	0	-0.1187368147848769	-0.1462544917132448	-0.08506787430803894
0.4199999999999999	0.03206933669735889	0.1079696641657424	-0.04875818327161459	-0.01519208999999999	0.86625517	0.49886874	0.5097718843903851	-0.07469089026047493	-0.01378196905096125	-0.2582028574482018	0.02084141310491022	0.1068042531579966	0	-0.2194524111000017	0.1936153043779963	-0.08728014353759117	-0.1023495224226949	0.280469118259065	0.1191413091507264	0	-0.1186325524805542	-0.1523721845516844	-0.08798294783386235
0.4299999999999999	0.03442407874245394	0.1114144071041991	-0.04715414618377389	-0.01474947000000001	0.86378506	0.51053527	0.5084490047534531	-0.07556409855653409	-0.01434170417059039	-0.2214622495379918	0.004234812268233454	0.1225009567833422	0	-0.2341819372042291	0.195634152729184	-0.09328685088889646	-0.1097478415240732	0.291887633646409	0.1306541168235741	0	-0.1222666037452282	-0.1575712619101133	-0.09242790577255047
0.4399999999999997	0.0399987810525843	0.1078422977231415	-0.04321529421981481	-0.01430164	0.86169683	0.5226423100000001	0.5041603525684543	-0.07156558903372204	-0.02488846110688486	-0.1962818976471413	-0.006088450195888319	0.1318143312506214	0	-0.2517134677730845	0.1881614799836768	-0.1127473559989703	-0.120174117160372	0.3072426717919171	0.1645758050616445	0	-0.1294529656989212	-0.1547879925078079	-0.09712999661221669
0.45	0.03898447500681671	0.1098404095188885	-0.04153063796992649	-0.01403963	0.85898871	0.5348238400000001	0.5127092253504042	-0.07145241926702885	-0.02565565251912428	-0.1895152650383385	-0.005454962872590579	0.1321396484058884	0	-0.2646910140482027	0.1890733841491149	-0.1147285144885599	-0.1254803816458842	0.3090145797904254	0.1653052216147513	0	-0.1269917577146961	-0.1573012249173106	-0.09851338594165066
0.4599999999999997	0.03714756391240144	0.1113046449711803	-0.03745027377374891	-0.01386804	0.8565229600000001	0.54710968	0.5193036471945774	-0.07171400258306659	-0.02540184918276022	-0.1864848575375494	-0.005494758822997003	0.1327119010269128	0	-0.27688663327074	0.1884032061652159	-0.1169756279948977	-0.1302513300878647	0.3106426468276965	0.1661371221562059	0	-0.1248647633525342	-0.1594594561352272	-0.09974581738075651
0.47	0.03512041164015711	0.1127691360797257	-0.03413598285122141	-0.01379488000000001	0.85426053	0.55984003	0.5230214962544958	-0.07157252025978048	-0.02531913960030454	-0.1869560006170119	-0.006483533397345267	0.1331221553283598	0	-0.2888776187471332	0.1883102017581673	-0.1187925143499604	-0.1359054823265305	0.311642422386853	0.167375829624769	0	-0.1214137440683851	-0.1608214367324575	-0.1015158371075471
0.4799999999999998	0.04147009491398406	0.112387756550076	-0.02788541523815254	-0.01376820000000001	0.85257286	0.5727090500000001	0.5244172430386327	-0.07456489494177346	-0.0478451253006179	-0.2095112307052059	0.003719191567178946	0.1680944246129147	0	-0.3023899541508819	0.1813172563195156	-0.1484158788355149	-0.1572715351214049	0.329079662415534	0.233785704005328	0	-0.1302252525999119	-0.1600397856164311	-0.117761572620884
0.49	0.04033400860049657	0.1102822159204992	-0.023907611933442	-0.0138134	0.85069054	0.5858036400000001	0.5265089089696745	-0.07181319767297199	-0.04635474885883301	-0.2259908377203161	-0.002734301921212695	0.1681504788289022	0	-0.3131763449680081	0.1767235888236418	-0.1478616181156175	-0.1679826783367595	0.3260287389184536	0.2354818397560914	0	-0.1275983645240522	-0.156241327303279	-0.120266964487788
